# xmcd
#
# Track frame offsets:
#	150
#	20173
#	35447
#	60930
#	84990
#	113304
#	139672
#	158848
#	182059
#	194619
#	211657
#	228939
#	246861
#	268808
#	286815
#
# Disc length: 4082 seconds
#
# Revision: 1
# Processed by: cddbd v1.5.2PL0 Copyright (c) Steve Scherf et al.
# Submitted via: audiograbber 1.83.01
#
DISCID=c40ff00f
DTITLE=div - Saint-Germain Des-Prés Café
DYEAR=2013
DGENRE=Cafe Lounge
TTITLE0=Chinese Man - I´ve Got That Tune
TTITLE1=Mr.scruff - Get A Move On
TTITLE2=Mo´horizons - Hit The Road Jack (Pé Na éstrada)
TTITLE3=St. Germain - My Mama Said
TTITLE4=Dj Disse - Break On Through
TTITLE5=Llorca - Indigo Blues
TTITLE6=Nick Holder - Sometimes I´m Blue
TTITLE7=Parov Stelar - Silent Snow
TTITLE8=Nekta - Here´s Us
TTITLE9=Slow Train - Naturally
TTITLE10=Waldeck - Memories
TTITLE11=Natural Self - In The Morning
TTITLE12=Guts - Brand New Revolution
TTITLE13=Beat Assailant - Hard Twelve (The Ante)
TTITLE14=The Mighty Bop - Feeling Good
EXTD=
EXTT0=
EXTT1=
EXTT2=
EXTT3=
EXTT4=
EXTT5=
EXTT6=
EXTT7=
EXTT8=
EXTT9=
EXTT10=
EXTT11=
EXTT12=
EXTT13=
EXTT14=
PLAYORDER=
